<svg width="197" height="44" viewBox="0 0 197 44" fill="none" xmlns="http://www.w3.org/2000/svg">
<path d="M192.412 42.12H184.283L188.792 18.2736L182.609 21.4363L182.52 18.0009L192.635 11.88H196.56L192.412 42.12Z" fill="#FAA83F"/>
<path d="M36.72 22.68L32.9692 42.12H27L30.7538 22.68H36.72Z" fill="#2A3C90"/>
<path d="M34.7023 12.9602C36.765 12.9602 37.7974 13.7789 37.7995 15.4163C37.8175 16.3169 37.5163 17.1989 36.9404 17.9318C36.1414 18.9373 34.9607 19.44 33.3981 19.44C31.2897 19.44 30.2376 18.6081 30.2417 16.9443C30.2105 15.8869 30.6677 14.8658 31.5024 14.1288C32.3576 13.3707 33.5078 12.9506 34.7023 12.9602Z" fill="#FAA83F"/>
<path d="M46.2243 23.1424L45.2238 28.1489C45.7289 26.8909 46.4809 25.739 47.4383 24.7562C48.9065 23.3721 50.7509 22.68 52.9715 22.68C55.192 22.68 56.7416 23.3436 57.62 24.6708C58.0969 25.4502 58.3389 26.3427 58.3185 27.2477C58.2881 28.1995 58.1687 29.1468 57.9617 30.0779L55.5215 42.12H49.3752L51.8734 29.8864C52.0818 28.956 52.2084 28.0102 52.2516 27.0592C52.2758 26.5143 52.0875 25.9805 51.7239 25.5632C51.3827 25.1774 50.8795 24.961 50.3543 24.9742C47.6661 24.9742 45.783 27.6345 44.7053 32.9551L42.8477 42.1082H36.7197L40.5722 23.1306L46.2243 23.1424Z" fill="#2A3C90"/>
<path d="M74.7531 36.4116H77.1957C76.8358 37.7901 76.1748 39.0746 75.2589 40.1751C73.4825 42.2018 70.9659 43.2101 67.7091 43.1999C65.0362 43.1999 62.9801 42.5696 61.5409 41.309C60.1017 40.0485 59.3882 38.2356 59.4005 35.8705C59.399 34.0187 59.7311 32.1814 60.3813 30.4441C60.9403 28.8386 61.8308 27.3646 62.9966 26.1152C65.2583 23.8251 68.1511 22.68 71.6752 22.68C74.6072 22.68 76.6529 23.5373 77.8126 25.2518C78.5023 26.2929 78.86 27.5137 78.8396 28.7569C78.8324 29.2673 78.7788 29.776 78.6792 30.2769H72.8163C73.0256 29.2477 73.1361 28.2014 73.1463 27.1518C73.1463 25.3643 72.4874 24.4705 71.1694 24.4705C70.3964 24.4838 69.6614 24.8038 69.1308 25.3582C68.366 26.0939 67.6063 27.7517 66.8517 30.3316C66.0971 32.9116 65.7281 35.1409 65.7445 37.0196C65.7445 38.4383 66.0601 39.5195 66.6913 40.2633C67.2789 40.9541 68.1585 41.3371 69.0723 41.2999C70.3554 41.2864 71.5876 40.8031 72.5295 39.9441C73.6047 39.0051 74.3768 37.7759 74.7501 36.4086" fill="#2A3C90"/>
<path fill-rule="evenodd" clip-rule="evenodd" d="M90.622 40.3115C91.4559 39.4997 92.1441 38.5561 92.6577 37.5205L91.8508 41.5744H97.6498L100.07 29.4818C100.3 28.4119 100.424 27.3228 100.44 26.2296C100.44 23.1432 97.9002 21.6 92.8209 21.6C89.5175 21.602 87.0384 22.245 85.3836 23.529C84.0303 24.5585 83.0949 26.0253 82.7443 27.6674H88.7096L88.8112 27.3027C89.1315 25.876 89.578 24.8431 90.1509 24.2042C90.7276 23.5668 91.5667 23.217 92.4359 23.2517C93.8495 23.2517 94.5517 24.0173 94.5517 25.5243C94.5179 26.224 94.4241 26.9197 94.2714 27.6041L93.8279 29.8134C88.7486 29.9541 85.3086 30.5328 83.5081 31.5495C82.4076 32.1509 81.4977 33.0373 80.8781 34.1115C80.2374 35.213 79.9069 36.4611 79.9203 37.7284C79.9285 39.141 80.4007 40.2261 81.3369 40.9837C82.2732 41.7412 83.6077 42.12 85.3405 42.12C87.5188 42.12 89.2793 41.5172 90.622 40.3115ZM93.5235 31.3265C93.5244 31.3265 93.5253 31.3265 93.5261 31.3265V31.3144C93.5253 31.3184 93.5244 31.3225 93.5235 31.3265ZM87.8011 32.8908C88.9012 31.8483 90.8087 31.3268 93.5235 31.3265C92.8923 34.2613 92.3553 36.1441 91.9124 36.9749C90.89 38.8617 89.6396 39.8051 88.1614 39.8051C86.8454 39.8051 86.1874 39.0014 86.1874 37.3939C86.1918 36.5231 86.3491 35.6595 86.6524 34.8409C86.8805 34.1146 87.2731 33.4479 87.8011 32.8908Z" fill="#2A3C90"/>
<path d="M102.981 22.9952H105.654L106.664 17.7702L113.038 16.2L111.729 22.9952H116.64L116.24 24.9572H111.354L109.056 36.8211C108.888 37.5655 108.787 38.3236 108.753 39.0862C108.753 40.3616 109.32 41.0003 110.453 41.0023C111.416 40.933 112.366 40.7428 113.283 40.436L112.908 42.4164C111.161 42.9045 109.359 43.1678 107.547 43.2C105.488 43.2 104.102 42.5827 103.389 41.3482C102.964 40.6244 102.746 39.7961 102.757 38.9546C102.79 37.9876 102.909 37.0256 103.114 36.0804L105.273 24.9572H102.6L102.981 22.9952Z" fill="#2A3C90"/>
<path fill-rule="evenodd" clip-rule="evenodd" d="M120.768 33.2365H133.591C133.789 32.199 133.899 31.1463 133.92 30.0899C133.92 27.1798 133.065 25.1743 131.354 24.0732C129.813 23.117 128.031 22.6342 126.225 22.6834C124.167 22.6676 122.139 23.1854 120.335 24.1876C119.072 24.9151 117.983 25.9155 117.145 27.1177C116.282 28.3303 115.622 29.6792 115.193 31.1097C114.726 32.5786 114.486 34.1119 114.48 35.6552C114.48 38.4951 115.362 40.5076 117.124 41.6929C118.705 42.7205 120.554 43.2444 122.432 43.197C125.61 43.199 128.184 42.2354 130.154 40.3061C131.117 39.332 131.882 38.1773 132.409 36.9067H130.098C129.486 38.2101 128.56 39.3359 127.404 40.1797C126.354 40.9455 125.092 41.357 123.798 41.356C121.491 41.358 120.338 40.0022 120.338 37.2887C120.358 35.9275 120.502 34.571 120.768 33.2365ZM128.185 28.0593C128.171 29.2306 128.047 30.398 127.817 31.5459H121.11C122.122 26.7667 123.717 24.3771 125.895 24.3771C127.422 24.3771 128.185 25.6045 128.185 28.0593Z" fill="#2A3C90"/>
<path d="M150.353 36.4116H152.795C152.434 37.7904 151.772 39.0748 150.856 40.1751C149.079 42.2018 146.563 43.2101 143.309 43.1999C140.636 43.1999 138.58 42.5696 137.141 41.309C135.701 40.0485 134.988 38.2356 135 35.8705C134.999 34.0187 135.331 32.1814 135.981 30.4441C136.539 28.838 137.429 27.3638 138.596 26.1152C140.858 23.8251 143.75 22.68 147.272 22.68C150.208 22.68 152.254 23.5373 153.409 25.2518C154.1 26.2926 154.459 27.5134 154.439 28.7569C154.432 29.2675 154.378 29.7763 154.276 30.2769H148.416C148.633 29.2484 148.75 28.2021 148.768 27.1518C148.768 25.3643 148.108 24.4705 146.791 24.4705C146.018 24.4838 145.283 24.8038 144.752 25.3582C143.983 26.0939 143.222 27.7517 142.47 30.3316C141.717 32.9116 141.34 35.1409 141.338 37.0196C141.338 38.4383 141.655 39.5195 142.288 40.2633C142.875 40.9541 143.755 41.3371 144.669 41.2999C145.956 41.2912 147.194 40.81 148.142 39.9502C149.215 39.0096 149.986 37.781 150.362 36.4147" fill="#2A3C90"/>
<path d="M163.633 26.3672C165.227 23.4988 167.585 22.0636 170.704 22.0616C172.92 22.0616 174.459 22.7543 175.324 24.1398C175.817 24.9776 176.064 25.937 176.039 26.9088C175.995 27.9549 175.862 28.9953 175.64 30.0186L173.27 42.12H167.157L169.688 29.1757C169.862 28.3274 169.955 27.4644 169.965 26.5984C169.965 25.1135 169.341 24.3711 168.094 24.3711C166.739 24.3711 165.583 25.0557 164.628 26.425C163.672 27.7943 162.936 29.837 162.419 32.5533L160.544 42.12H154.44L160.578 10.8H166.691L163.633 26.3672Z" fill="#2A3C90"/>
<path d="M11.9717 42.12L0 11.2614H8.98719L13.7428 37.7211L19.0039 4.32001H28.08L19.6413 42.105L11.9717 42.12Z" fill="#2A3C90"/>
<path d="M12.96 5.4L23.555 0L33.48 5.4H28.7809" fill="#2A3C90"/>
</svg>
